<svg width="1005" height="31" viewBox="0 0 42 31" fill="none" xmlns="http://www.w3.org/2000/svg">
<path d="M40.9556 24.0208L38.6849 8.06251C38.1016 3.95834 34.581 0.916672 30.4354 0.916672H11.5614C7.41583 0.916672 3.8952 3.95834 3.3119 8.06251L1.04119 24.0208C0.582884 27.2292 3.06191 30.0833 6.29089 30.0833C7.70748 30.0833 9.04074 29.5208 10.0407 28.5208L14.7487 23.8333H27.248L31.9353 28.5208C32.9352 29.5208 34.2893 30.0833 35.6851 30.0833C38.9349 30.0833 41.4139 27.2292 40.9556 24.0208ZM18.9152 13.4167H14.7487V17.5833H12.6655V13.4167H8.4991V11.3333H12.6655V7.16667H14.7487V11.3333H18.9152V13.4167ZM27.248 11.3333C26.1023 11.3333 25.1648 10.3958 25.1648 9.25001C25.1648 8.10417 26.1023 7.16667 27.248 7.16667C28.3938 7.16667 29.3313 8.10417 29.3313 9.25001C29.3313 10.3958 28.3938 11.3333 27.248 11.3333ZM31.4145 17.5833C30.2687 17.5833 29.3313 16.6458 29.3313 15.5C29.3313 14.3542 30.2687 13.4167 31.4145 13.4167C32.5602 13.4167 33.4977 14.3542 33.4977 15.5C33.4977 16.6458 32.5602 17.5833 31.4145 17.5833Z" fill="#2A7AE4"/>
<path d="M7.7718 0.75003H10.8216L17.5713 18.5H14.0215L12.3715 14.075H6.17189L4.54698 18.5H0.997185L7.7718 0.75003ZM11.7466 11.65L9.29672 4.67503L6.74686 11.65H11.7466Z" fill="#2A7AE4"/>
<path d="M19.168 0.250031H22.5178V14.3C22.5178 14.7834 22.6345 15.1584 22.8678 15.425C23.1011 15.6917 23.4345 15.825 23.8678 15.825C24.0678 15.825 24.2844 15.7917 24.5177 15.725C24.7677 15.6584 25.001 15.575 25.2177 15.475L25.6677 18.025C25.2177 18.2417 24.6927 18.4084 24.0928 18.525C23.4928 18.6417 22.9512 18.7 22.4678 18.7C21.4179 18.7 20.6013 18.425 20.018 17.875C19.4514 17.3084 19.168 16.5084 19.168 15.475V0.250031Z" fill="#2A7AE4"/>
<path d="M31.1269 18.75C29.777 18.75 28.7521 18.3167 28.0521 17.45C27.3521 16.5834 27.0022 15.3 27.0022 13.6V5.40003H30.352V12.875C30.352 14.8917 31.0769 15.9 32.5268 15.9C33.1768 15.9 33.8018 15.7084 34.4017 15.325C35.0184 14.925 35.5183 14.325 35.9017 13.525V5.40003H39.2515V14.65C39.2515 15 39.3098 15.25 39.4265 15.4C39.5598 15.55 39.7681 15.6334 40.0514 15.65V18.5C39.7181 18.5667 39.4348 18.6084 39.2015 18.625C38.9848 18.6417 38.7848 18.65 38.6015 18.65C38.0015 18.65 37.5099 18.5167 37.1266 18.25C36.7599 17.9667 36.5433 17.5834 36.4766 17.1L36.4016 16.05C35.8183 16.95 35.0684 17.625 34.1518 18.075C33.2351 18.525 32.2269 18.75 31.1269 18.75Z" fill="#2A7AE4"/>
<path d="M50.3799 8.30003C49.3633 8.3167 48.4551 8.5167 47.6551 8.90003C46.8551 9.2667 46.2802 9.82503 45.9302 10.575V18.5H42.5804V5.40003H45.6552V8.20003C45.8885 7.75003 46.1635 7.35003 46.4802 7.00003C46.7968 6.63337 47.1385 6.3167 47.5051 6.05003C47.8718 5.78337 48.2384 5.58337 48.605 5.45003C48.9884 5.30003 49.355 5.22503 49.705 5.22503C49.8883 5.22503 50.0216 5.22503 50.105 5.22503C50.205 5.22503 50.2966 5.23337 50.3799 5.25003V8.30003Z" fill="#2A7AE4"/>
<path d="M55.6517 18.75C55.0184 18.75 54.4268 18.65 53.8768 18.45C53.3268 18.2334 52.8519 17.9417 52.4519 17.575C52.0519 17.1917 51.7353 16.75 51.5019 16.25C51.2853 15.75 51.177 15.2 51.177 14.6C51.177 13.9834 51.3103 13.4167 51.5769 12.9C51.8603 12.3667 52.2436 11.9167 52.7269 11.55C53.2268 11.1834 53.8185 10.9 54.5018 10.7C55.1851 10.4834 55.935 10.375 56.7516 10.375C57.3349 10.375 57.9016 10.425 58.4516 10.525C59.0182 10.625 59.5182 10.7667 59.9515 10.95V10.2C59.9515 9.33337 59.7015 8.6667 59.2015 8.20003C58.7182 7.73336 57.9932 7.50003 57.0266 7.50003C56.3267 7.50003 55.6434 7.62503 54.9768 7.87503C54.3101 8.12503 53.6268 8.4917 52.9269 8.97503L51.9019 6.85003C53.5852 5.73336 55.4017 5.17503 57.3516 5.17503C59.2348 5.17503 60.6931 5.6417 61.7264 6.57503C62.7763 7.4917 63.3013 8.82503 63.3013 10.575V14.65C63.3013 15 63.3596 15.25 63.4763 15.4C63.6096 15.55 63.8179 15.6334 64.1012 15.65V18.5C63.5346 18.6167 63.043 18.675 62.6263 18.675C61.993 18.675 61.5014 18.5334 61.1514 18.25C60.8181 17.9667 60.6098 17.5917 60.5264 17.125L60.4514 16.4C59.8681 17.1667 59.1599 17.75 58.3266 18.15C57.4933 18.55 56.6017 18.75 55.6517 18.75ZM56.6017 16.3C57.1683 16.3 57.7016 16.2 58.2016 16C58.7182 15.8 59.1182 15.5334 59.4015 15.2C59.7682 14.9167 59.9515 14.6 59.9515 14.25V12.75C59.5515 12.6 59.1182 12.4834 58.6515 12.4C58.1849 12.3 57.7349 12.25 57.3016 12.25C56.435 12.25 55.7267 12.45 55.1767 12.85C54.6268 13.2334 54.3518 13.725 54.3518 14.325C54.3518 14.8917 54.5684 15.3667 55.0018 15.75C55.4351 16.1167 55.9684 16.3 56.6017 16.3Z" fill="#2A7AE4"/>
<path d="M14.0806 16.5C12.664 17.9167 11.0141 18.625 9.13091 18.625C7.96431 18.625 6.86437 18.3917 5.83109 17.925C4.81448 17.4584 3.92287 16.8167 3.15625 16C2.40629 15.1834 1.80632 14.225 1.35635 13.125C0.923038 12.0084 0.706383 10.8084 0.706383 9.52503C0.706383 8.30837 0.923038 7.1667 1.35635 6.10003C1.80632 5.0167 2.41462 4.07503 3.18124 3.27503C3.96453 2.45836 4.88114 1.8167 5.93109 1.35003C6.98103 0.866697 8.12263 0.62503 9.3559 0.62503C11.0225 0.62503 12.4474 0.97503 13.6307 1.67503C14.8306 2.37503 15.7305 3.3167 16.3305 4.50003L13.7556 6.40003C13.3057 5.5167 12.6724 4.8417 11.8558 4.37503C11.0558 3.90836 10.1809 3.67503 9.23091 3.67503C8.48095 3.67503 7.78932 3.83336 7.15602 4.15003C6.53939 4.4667 6.00608 4.90003 5.55611 5.45003C5.1228 6.00003 4.78115 6.63337 4.53116 7.35003C4.29784 8.0667 4.18119 8.82503 4.18119 9.62503C4.18119 10.4584 4.31451 11.2417 4.58116 11.975C4.84782 12.6917 5.21446 13.3167 5.6811 13.85C6.14774 14.3834 6.69771 14.8084 7.33101 15.125C7.98097 15.425 8.68093 15.575 9.43089 15.575C11.1475 15.575 12.6974 14.7667 14.0806 13.15V11.9H10.5058V9.37503H16.9305V18.5H14.0806V16.5Z" fill="#464646"/>
<path d="M25.6202 18.75C24.5703 18.75 23.6203 18.575 22.7704 18.225C21.9204 17.8584 21.1955 17.3667 20.5955 16.75C19.9955 16.1334 19.5289 15.4167 19.1956 14.6C18.8789 13.7834 18.7206 12.925 18.7206 12.025C18.7206 11.0917 18.8789 10.2167 19.1956 9.40003C19.5122 8.5667 19.9705 7.8417 20.5705 7.22503C21.1705 6.5917 21.8954 6.0917 22.7454 5.72503C23.612 5.35836 24.5786 5.17503 25.6452 5.17503C26.7118 5.17503 27.6618 5.35836 28.4951 5.72503C29.345 6.0917 30.0616 6.58337 30.6449 7.20003C31.2449 7.8167 31.6949 8.53337 31.9949 9.35003C32.3115 10.1667 32.4698 11.0167 32.4698 11.9C32.4698 12.1167 32.4615 12.325 32.4448 12.525C32.4448 12.725 32.4282 12.8917 32.3948 13.025H22.2704C22.3204 13.5417 22.4454 14 22.6454 14.4C22.8454 14.8 23.1037 15.1417 23.4203 15.425C23.737 15.7084 24.0953 15.925 24.4953 16.075C24.8953 16.225 25.3119 16.3 25.7452 16.3C26.4118 16.3 27.0368 16.1417 27.6201 15.825C28.2201 15.4917 28.6284 15.0584 28.845 14.525L31.7199 15.325C31.2366 16.325 30.4616 17.15 29.395 17.8C28.3451 18.4334 27.0868 18.75 25.6202 18.75ZM29.02 10.85C28.9367 9.8667 28.57 9.08337 27.9201 8.50003C27.2868 7.90003 26.5118 7.60003 25.5952 7.60003C25.1452 7.60003 24.7203 7.68337 24.3203 7.85003C23.937 8.00003 23.5953 8.2167 23.2953 8.50003C22.9954 8.78337 22.7454 9.12503 22.5454 9.52503C22.3621 9.92503 22.2537 10.3667 22.2204 10.85H29.02Z" fill="#464646"/>
<path d="M40.5852 18.75C39.5353 18.75 38.5853 18.575 37.7354 18.225C36.8854 17.8584 36.1604 17.3667 35.5605 16.75C34.9605 16.1334 34.4939 15.4167 34.1606 14.6C33.8439 13.7834 33.6856 12.925 33.6856 12.025C33.6856 11.0917 33.8439 10.2167 34.1606 9.40003C34.4772 8.5667 34.9355 7.8417 35.5355 7.22503C36.1354 6.5917 36.8604 6.0917 37.7104 5.72503C38.577 5.35836 39.5436 5.17503 40.6102 5.17503C41.6768 5.17503 42.6267 5.35836 43.46 5.72503C44.31 6.0917 45.0266 6.58337 45.6099 7.20003C46.2099 7.8167 46.6599 8.53337 46.9598 9.35003C47.2765 10.1667 47.4348 11.0167 47.4348 11.9C47.4348 12.1167 47.4265 12.325 47.4098 12.525C47.4098 12.725 47.3931 12.8917 47.3598 13.025H37.2354C37.2854 13.5417 37.4104 14 37.6104 14.4C37.8103 14.8 38.0687 15.1417 38.3853 15.425C38.702 15.7084 39.0603 15.925 39.4603 16.075C39.8602 16.225 40.2769 16.3 40.7102 16.3C41.3768 16.3 42.0018 16.1417 42.5851 15.825C43.185 15.4917 43.5934 15.0584 43.81 14.525L46.6848 15.325C46.2015 16.325 45.4266 17.15 44.36 17.8C43.31 18.4334 42.0518 18.75 40.5852 18.75ZM43.985 10.85C43.9017 9.8667 43.535 9.08337 42.8851 8.50003C42.2518 7.90003 41.4768 7.60003 40.5602 7.60003C40.1102 7.60003 39.6852 7.68337 39.2853 7.85003C38.902 8.00003 38.5603 8.2167 38.2603 8.50003C37.9603 8.78337 37.7104 9.12503 37.5104 9.52503C37.327 9.92503 37.2187 10.3667 37.1854 10.85H43.985Z" fill="#464646"/>
<path d="M58.425 18.5L54.6252 12.825L52.8253 14.6V18.5H49.4755V0.250031H52.8253V11.325L58.075 5.42503H61.6498L56.7751 10.975L61.9998 18.5H58.425Z" fill="#464646"/>

</svg>